<svg width="20" height="20" viewBox="0 0 20 20" fill="none" xmlns="http://www.w3.org/2000/svg">
<g id="Group">
<path id="Vector" d="M14.1667 3.3334L17.5 6.66674L14.1667 10.0001V7.50007H10.8333V5.8334H14.1667V3.3334ZM8.33333 5.8334C7.875 5.8334 7.5 6.2084 7.5 6.66674C7.5 7.12507 7.875 7.50007 8.33333 7.50007C8.79167 7.50007 9.16667 7.12507 9.16667 6.66674C9.16667 6.2084 8.79167 5.8334 8.33333 5.8334ZM5 5.8334C4.54167 5.8334 4.16667 6.2084 4.16667 6.66674C4.16667 7.12507 4.54167 7.50007 5 7.50007C5.45833 7.50007 5.83333 7.12507 5.83333 6.66674C5.83333 6.2084 5.45833 5.8334 5 5.8334ZM5.83333 14.1667H9.16667V12.5001H5.83333V10.0001L2.5 13.3334L5.83333 16.6667V14.1667ZM11.6667 14.1667C12.125 14.1667 12.5 13.7917 12.5 13.3334C12.5 12.8751 12.125 12.5001 11.6667 12.5001C11.2083 12.5001 10.8333 12.8751 10.8333 13.3334C10.8333 13.7917 11.2083 14.1667 11.6667 14.1667ZM15 14.1667C15.4583 14.1667 15.8333 13.7917 15.8333 13.3334C15.8333 12.8751 15.4583 12.5001 15 12.5001C14.5417 12.5001 14.1667 12.8751 14.1667 13.3334C14.1667 13.7917 14.5417 14.1667 15 14.1667Z" fill="#260446"/>
</g>
</svg>
